<svg width="31" height="31" viewBox="0 0 31 31" fill="none" xmlns="http://www.w3.org/2000/svg">
<circle cx="15.0285" cy="15.0285" r="15.0285" fill="url(#paint0_linear_103_42395)"/>
<path d="M20.7823 9.83841C19.8341 9.39637 18.8074 9.07554 17.7379 8.89017C17.7286 8.88987 17.7192 8.89163 17.7106 8.89532C17.702 8.89902 17.6943 8.90456 17.688 8.91156C17.5597 9.14684 17.41 9.45341 17.3102 9.68869C16.1758 9.51758 15.0223 9.51758 13.8879 9.68869C13.7881 9.44628 13.6384 9.14684 13.5029 8.91156C13.4958 8.8973 13.4744 8.89017 13.453 8.89017C12.3836 9.07554 11.3641 9.39637 10.4087 9.83841C10.4016 9.83841 10.3944 9.84554 10.3873 9.85267C8.44804 12.7544 7.91332 15.5778 8.17712 18.3726C8.17712 18.3868 8.18425 18.4011 8.1985 18.4082C9.48184 19.3493 10.7153 19.9197 11.9344 20.2976C11.9558 20.3047 11.9772 20.2976 11.9843 20.2833C12.2695 19.8912 12.5262 19.4777 12.7472 19.0428C12.7615 19.0142 12.7472 18.9857 12.7187 18.9786C12.3123 18.8217 11.9273 18.6364 11.5494 18.4225C11.5209 18.4082 11.5209 18.3654 11.5423 18.3441C11.6207 18.287 11.6992 18.2229 11.7776 18.1658C11.7918 18.1516 11.8132 18.1516 11.8275 18.1587C14.2801 19.278 16.9252 19.278 19.3492 18.1587C19.3635 18.1516 19.3849 18.1516 19.3992 18.1658C19.4776 18.23 19.556 18.287 19.6344 18.3512C19.6629 18.3726 19.6629 18.4154 19.6273 18.4296C19.2566 18.6506 18.8644 18.8289 18.458 18.9857C18.4295 18.9929 18.4224 19.0285 18.4295 19.0499C18.6577 19.4848 18.9143 19.8983 19.1924 20.2904C19.2138 20.2976 19.2352 20.3047 19.2566 20.2976C20.4829 19.9197 21.7163 19.3493 22.9996 18.4082C23.0139 18.4011 23.021 18.3868 23.021 18.3726C23.3347 15.1429 22.5005 12.3409 20.8108 9.85267C20.8037 9.84554 20.7966 9.83841 20.7823 9.83841V9.83841ZM13.1179 16.6686C12.3836 16.6686 11.7704 15.9913 11.7704 15.1571C11.7704 14.3229 12.3693 13.6456 13.1179 13.6456C13.8737 13.6456 14.4726 14.3301 14.4654 15.1571C14.4654 15.9913 13.8666 16.6686 13.1179 16.6686ZM18.0873 16.6686C17.3529 16.6686 16.7398 15.9913 16.7398 15.1571C16.7398 14.3229 17.3387 13.6456 18.0873 13.6456C18.843 13.6456 19.4419 14.3301 19.4348 15.1571C19.4348 15.9913 18.843 16.6686 18.0873 16.6686Z" fill="white"/>
<defs>
<linearGradient id="paint0_linear_103_42395" x1="-1.81796" y1="-2.12562" x2="23.4254" y2="42.529" gradientUnits="userSpaceOnUse">
<stop stop-color="#CC1D19"/>
<stop offset="1" stop-color="#CC4F19"/>
</linearGradient>
</defs>
</svg>
