<svg width="23" height="23" viewBox="0 0 23 23" fill="none" xmlns="http://www.w3.org/2000/svg">
<path d="M21.4808 22.1333C21.0905 22.5264 20.455 22.5273 20.0636 22.1352L12.2058 14.2652C11.8152 13.8739 11.1812 13.8739 10.7905 14.2652L2.93028 22.1377C2.53985 22.5288 1.90626 22.529 1.51551 22.1383L0.860005 21.4828C0.469264 21.0921 0.469514 20.4585 0.860562 20.068L8.73315 12.2078C9.12442 11.8171 9.12442 11.1831 8.73315 10.7925L0.860562 2.93224C0.469514 2.5418 0.469265 1.90821 0.860006 1.51747L1.51552 0.861959C1.90626 0.471217 2.53985 0.471467 2.93028 0.862515L10.7911 8.73566C11.1815 9.12671 11.8151 9.12696 12.2058 8.73622L20.0661 0.875988C20.4566 0.485464 21.0898 0.485463 21.4803 0.875987L22.1223 1.51802C22.5128 1.90855 22.5128 2.54171 22.1223 2.93224L14.2615 10.793C13.871 11.1835 13.871 11.8167 14.2615 12.2072L22.1248 20.0705C22.5144 20.4601 22.5155 21.0913 22.1273 21.4822L21.4808 22.1333Z" fill="white"/>
</svg>
